<?xml version="1.0" encoding="UTF-8" standalone="no"?>
<svg
   xmlns:dc="http://purl.org/dc/elements/1.1/"
   xmlns:cc="http://creativecommons.org/ns#"
   xmlns:rdf="http://www.w3.org/1999/02/22-rdf-syntax-ns#"
   xmlns:svg="http://www.w3.org/2000/svg"
   xmlns="http://www.w3.org/2000/svg"
   xmlns:sodipodi="http://sodipodi.sourceforge.net/DTD/sodipodi-0.dtd"
   xmlns:inkscape="http://www.inkscape.org/namespaces/inkscape"
   version="1.1"
   viewBox="0 0 102.86 103.81"
   id="svg897"
   sodipodi:docname="discourse.svg"
   width="102.86"
   height="103.81"
   inkscape:version="0.92.4 (5da689c313, 2019-01-14)">
  <defs
     id="defs901" />
  <sodipodi:namedview
     pagecolor="#ffffff"
     bordercolor="#666666"
     borderopacity="1"
     objecttolerance="10"
     gridtolerance="10"
     guidetolerance="10"
     inkscape:pageopacity="0"
     inkscape:pageshadow="2"
     inkscape:window-width="1600"
     inkscape:window-height="881"
     id="namedview899"
     showgrid="false"
     fit-margin-top="0"
     fit-margin-left="0"
     fit-margin-right="0"
     fit-margin-bottom="0"
     inkscape:zoom="2.9116883"
     inkscape:cx="32.656241"
     inkscape:cy="51.81"
     inkscape:window-x="0"
     inkscape:window-y="0"
     inkscape:window-maximized="0"
     inkscape:current-layer="vlpa" />
  <metadata
     id="metadata878">
    <rdf:RDF>
      <cc:Work
         rdf:about="">
        <dc:format>image/svg+xml</dc:format>
        <dc:type
           rdf:resource="http://purl.org/dc/dcmitype/StillImage" />
        <dc:title>Discourse</dc:title>
      </cc:Work>
    </rdf:RDF>
  </metadata>
  <title
     id="title880">Discourse</title>
  <desc
     id="desc882">An open source online discussion forum and mailing list management software licensed under GNU GPL</desc>
  <g
     id="vlpa"
     transform="translate(0.03)">
    <path
       d="M 51.84,0 C 23.68,0 -0.03,22.83 -0.03,51 v 52.81 l 51.86,-0.05 c 28.16,0 51,-23.71 51,-51.87 C 102.83,23.73 79.97,0 51.84,0 Z"
       id="path884"
       inkscape:connector-curvature="0"
       sodipodi:nodetypes="ssccss" />
    <path
       d="m 52.37,19.74 c -11.14,0.0066 -21.45,5.873 -27.15,15.44 -5.7,9.567 -5.942,21.43 -0.6404,31.23 l -5.72,18.4 20.54,-4.64 c 11.76,5.299 25.56,2.919 34.87,-6.013 9.308,-8.933 12.25,-22.63 7.442,-34.6 -4.811,-11.97 -16.41,-19.82 -29.31,-19.82 z"
       id="path886"
       inkscape:connector-curvature="0"
       style="fill:#fff9ae" />
    <path
       d="M 77.09,70.91 C 68.111,82.24 52.59,86.03 39.4,80.116 l -20.54,4.7 20.91,-2.47 c 13.86,8.12 31.61,4.547 41.25,-8.304 9.64,-12.851 8.104,-30.89 -3.571,-41.93 8.765,11.49 8.616,27.47 -0.3626,38.79 z"
       id="path888"
       inkscape:connector-curvature="0"
       style="fill:#00aeef" />
    <path
       d="M 75.32,64.91 C 67.573,77.11 52.54,82.5 38.8,78 L 18.86,84.82 39.4,80.17 c 14.63,6.608 31.89,1.199 40.13,-12.58 8.24,-13.78 4.844,-31.54 -7.897,-41.3 9.917,10.51 11.44,26.42 3.689,38.62 z"
       id="path890"
       inkscape:connector-curvature="0"
       style="fill:#00a94f" />
    <path
       d="M 26.47,67.11 C 20.745,53.31 25.463,37.39 37.78,28.93 50.1,20.477 66.65,21.801 77.47,32.106 67.45,18.956 49,15.746 35.13,24.743 21.26,33.737 16.66,51.893 24.58,66.403 l -5.72,18.4 z"
       id="path892"
       inkscape:connector-curvature="0"
       style="fill:#f15d22" />
    <path
       d="m 24.58,66.41 c -7.103,-13.12 -4.065,-29.42 7.288,-39.1 11.35,-9.681 27.93,-10.11 39.76,-1.018 -11.35,-11.95 -29.98,-13.18 -42.8,-2.81 -12.82,10.37 -15.52,28.84 -6.202,42.44 l -3.76,18.9 z"
       id="path894"
       inkscape:connector-curvature="0"
       style="fill:#d0232b" />
  </g>
</svg>
