<?xml version="1.0" encoding="UTF-8" standalone="no"?>
<svg
   xmlns:dc="http://purl.org/dc/elements/1.1/"
   xmlns:cc="http://creativecommons.org/ns#"
   xmlns:rdf="http://www.w3.org/1999/02/22-rdf-syntax-ns#"
   xmlns:svg="http://www.w3.org/2000/svg"
   xmlns="http://www.w3.org/2000/svg"
   xmlns:sodipodi="http://sodipodi.sourceforge.net/DTD/sodipodi-0.dtd"
   xmlns:inkscape="http://www.inkscape.org/namespaces/inkscape"
   viewBox="0 0 512.09998 512"
   version="1.1"
   id="svg875"
   sodipodi:docname="fontawesome.svg"
   width="512.09998"
   height="512"
   inkscape:version="0.92.4 (5da689c313, 2019-01-14)">
  <metadata
     id="metadata881">
    <rdf:RDF>
      <cc:Work
         rdf:about="">
        <dc:format>image/svg+xml</dc:format>
        <dc:type
           rdf:resource="http://purl.org/dc/dcmitype/StillImage" />
        <dc:title></dc:title>
      </cc:Work>
    </rdf:RDF>
  </metadata>
  <defs
     id="defs879" />
  <sodipodi:namedview
     pagecolor="#ffffff"
     bordercolor="#666666"
     borderopacity="1"
     objecttolerance="10"
     gridtolerance="10"
     guidetolerance="10"
     inkscape:pageopacity="0"
     inkscape:pageshadow="2"
     inkscape:window-width="1600"
     inkscape:window-height="881"
     id="namedview877"
     showgrid="false"
     fit-margin-top="0"
     fit-margin-left="0"
     fit-margin-right="0"
     fit-margin-bottom="0"
     inkscape:zoom="0.21718437"
     inkscape:cx="2019.0219"
     inkscape:cy="256"
     inkscape:window-x="0"
     inkscape:window-y="0"
     inkscape:window-maximized="0"
     inkscape:current-layer="svg875" />
  <!-- Font Awesome Free 5.15.3 by @fontawesome - https://fontawesome.com License - https://fontawesome.com/license/free (Icons: CC BY 4.0, Fonts: SIL OFL 1.1, Code: MIT License) -->
  <path
     d="M 454.6,0 H 57.4 C 25.9,0 0,25.9 0,57.4 V 454.7 C 0,486.1 25.9,512 57.4,512 h 397.3 c 31.4,0 57.4,-25.9 57.4,-57.4 V 57.4 C 512,25.9 486.1,0 454.6,0 Z m -58.9,324.9 c 0,4.8 -4.1,6.9 -8.9,8.9 -19.2,8.1 -39.7,15.7 -61.5,15.7 -40.5,0 -68.7,-44.8 -163.2,2.5 v 51.8 c 0,30.3 -45.7,30.2 -45.7,0 v -250 c -9,-7 -15,-17.9 -15,-30.3 0,-21 17.1,-38.2 38.2,-38.2 21,0 38.2,17.1 38.2,38.2 0,12.2 -5.8,23.2 -14.9,30.2 v 21 c 37.1,-12 65.5,-34.4 146.1,-3.4 26.6,11.4 68.7,-15.7 76.5,-15.7 5.5,0 10.3,4.1 10.3,8.9 v 160.4 z"
     id="path873"
     inkscape:connector-curvature="0"
     sodipodi:nodetypes="ssssssscsccscsscssscccsscc" />
</svg>
