<?xml version="1.0" encoding="UTF-8"?>
<svg width="102px" height="48px" viewBox="0 4 102 48" version="1.1" xmlns="http://www.w3.org/2000/svg" xmlns:xlink="http://www.w3.org/1999/xlink">
    <!-- Generator: Sketch 41.2 (35397) - http://www.bohemiancoding.com/sketch -->
    <desc>Created with Sketch.</desc>
    <defs></defs>
    <path d="M99.6673785,10.4328259 C98.6678512,10.73315 96.8217355,11.2522515 93.9489756,11.512198 C91.6562453,11.7206831 88.0225864,11.5953282 87.9165595,11.5953282 C77.9028463,11.609579 75.2722399,17.8393243 75.2722399,21.6387669 C75.2722399,23.519355 75.8346436,25.7108235 77.3965746,27.5212129 C76.42091,28.4403946 75.0935398,30.1499722 75.0935398,32.6473067 C75.0935398,35.9110219 77.1758433,37.5847084 77.1758433,37.5847084 C77.1758433,37.5847084 74.9265,40.2232322 74.9265,43.471113 C74.9265,49.6385766 79.7665879,52 87.9160171,52 C95.5708349,52 100.919093,49.4417034 100.919093,43.0921452 C100.919093,36.3274642 96.3100404,33.7649451 91.0263207,33.7649451 C89.6609869,33.7649451 85.1519958,33.7638895 83.5385428,33.7638895 C82.6116886,33.7638895 81.6983928,32.9829941 81.6983928,31.9123309 C81.6983928,31.3013904 81.9725443,30.8548629 82.3326561,30.5305235 C83.7684938,30.9485492 85.4687207,31.1902864 87.4753682,31.1902864 L88.355039,31.1902864 C97.9492544,31.1902864 100.558438,25.6891833 100.558438,21.6387669 C100.558438,20.2171098 100.189649,18.4544872 99.2039514,16.804816 C100.100164,16.5694126 100.872994,16.3379678 101.400959,16.1078425 C101.765952,15.9492355 102.100845,15.5773931 101.971769,15.0699035 C101.622775,13.7036665 100.868926,11.231403 100.822014,11.0601285 C100.709751,10.6558258 100.27561,10.2499397 99.6673785,10.4328259 Z M83.9011,21.3999423 C83.9011,18.2898247 85.8833452,16.5979313 88.0608322,16.585 C90.2377767,16.5979313 91.9296,18.2898247 91.9296,21.3999423 C91.9296,24.2991999 90.3109924,26.1842716 87.9149432,26.1943 C85.5199788,26.1842716 83.9011,24.2991999 83.9011,21.3999423 Z M90.0433213,39.6777 C92.2031761,39.6777 93.2347,41.0753342 93.2347,42.8485033 C93.2347,44.4540937 92.3940786,46.246 88.1538213,46.246 C83.7570999,46.246 82.9238,44.6332843 82.9238,43.2282608 C82.9238,40.9315066 84.2875049,39.6813947 84.2875049,39.6813947 C84.2875049,39.6813947 86.3638399,39.6777 90.0433213,39.6777 Z M70.5620785,10.4328259 C69.5625512,10.73315 67.7164355,11.2522515 64.8436756,11.512198 C62.5509453,11.7206831 58.9172864,11.5953282 58.8112595,11.5953282 C48.7975463,11.609579 46.1669399,17.8393243 46.1669399,21.6387669 C46.1669399,23.519355 46.7293436,25.7108235 48.2912746,27.5212129 C47.31561,28.4403946 45.9882398,30.1499722 45.9882398,32.6473067 C45.9882398,35.9110219 48.0702722,37.5847084 48.0702722,37.5847084 C48.0702722,37.5847084 45.8212,40.2232322 45.8212,43.471113 C45.8212,49.6385766 50.6612879,52 58.8107171,52 C66.4655349,52 71.8137927,49.4417034 71.8137927,43.0921452 C71.8137927,36.3274642 67.2047404,33.7649451 61.9210207,33.7649451 C60.5556869,33.7649451 56.0466958,33.7638895 54.4332428,33.7638895 C53.5063886,33.7638895 52.5930928,32.9829941 52.5930928,31.9123309 C52.5930928,31.3013904 52.8672443,30.8548629 53.2273561,30.5305235 C54.6631938,30.9485492 56.3634207,31.1902864 58.3700682,31.1902864 L59.249739,31.1902864 C68.8439544,31.1902864 71.4531385,25.6891833 71.4531385,21.6387669 C71.4531385,20.2171098 71.0843492,18.4544872 70.0986514,16.804816 C70.9948636,16.5694126 71.767694,16.3379678 72.2956592,16.1078425 C72.6606521,15.9492355 72.9955453,15.5773931 72.8664691,15.0699035 C72.5174751,13.7036665 71.7636265,11.231403 71.7167143,11.0601285 C71.6044505,10.6558258 71.1703096,10.2499397 70.5620785,10.4328259 Z M54.7958,21.3999423 C54.7958,18.2898247 56.7780452,16.5979313 58.9555322,16.585 C61.1324767,16.5979313 62.8243,18.2898247 62.8243,21.3999423 C62.8243,24.2991999 61.2056924,26.1842716 58.8096432,26.1943 C56.4146788,26.1842716 54.7958,24.2991999 54.7958,21.3999423 Z M60.9380213,39.6777 C63.0978761,39.6777 64.1294,41.0753342 64.1294,42.8485033 C64.1294,44.4540937 63.2887786,46.246 59.0485213,46.246 C54.6517999,46.246 53.8185,44.6332843 53.8185,43.2282608 C53.8185,40.9315066 55.1822049,39.6813947 55.1822049,39.6813947 C55.1822049,39.6813947 57.2585399,39.6777 60.9380213,39.6777 Z M11.2263738,32.0823399 C9.63922485,32.0823399 8.69121996,31.5276115 8.69121996,29.8000892 L8.69121996,4.88771845 C8.69121996,4.33008713 8.19010066,3.92552072 7.64369624,4.01155376 C5.55108932,4.34354629 1.02691492,5.04447804 0.747882582,5.08828627 C0.384788029,5.14476195 0.000271168449,5.46382313 0.000271168449,5.93093503 C0.000271168449,9.37304831 0,24.1271867 0,30.8029283 C0,38.3886144 5.70918052,39.1067 8.91683211,39.1067 C10.9541207,39.1067 12.381009,38.8303914 13.1511274,38.6295597 C13.5950302,38.5129137 13.8201,38.1584892 13.8201,37.786911 L13.8201,32.8149402 C13.8201,32.3631348 13.4122627,31.8424502 12.7793555,31.9519708 C12.3655524,32.023489 11.8419262,32.0823399 11.2263738,32.0823399 Z M33.9585207,12.0844 C33.4132006,12.0844 33.0644777,12.5245949 33.0644777,12.9106891 C33.0644777,13.2007216 33.0576985,29.3119078 33.0576985,29.3119078 C32.4307566,29.9948961 30.3725867,32.0103448 27.9298996,32.0103448 C26.3839672,32.0103448 25.7006223,31.2679777 25.7006223,29.2794474 L25.7006223,12.9560809 C25.7006223,12.4623131 25.2952252,12.0844 24.7862416,12.0844 L17.8746955,12.0844 C17.4706542,12.0844 17.0056,12.4166574 17.0056,12.9431495 L17.0056,30.6995246 C17.0056,34.9682012 18.266263,39.1073 24.2458026,39.1073 C28.0353842,39.1073 31.3590982,36.6474339 33.2494147,34.8916685 C33.5558353,35.9195816 34.1233912,37.823926 34.1694899,37.9967843 C34.2337569,38.2337717 34.4965193,38.6235606 35.0209594,38.6235606 L40.8828118,38.6235606 C41.1916729,38.6235606 41.7595,38.3884206 41.7595,37.7291838 L41.7595,12.9267874 C41.7595,12.4855368 41.3722712,12.0844 40.8643723,12.0844 L33.9585207,12.0844 Z" id="Logo" stroke="none" fill="#283060" fill-rule="evenodd"></path>
</svg>
